<svg xmlns="http://www.w3.org/2000/svg" width="22.8" height="28.8" viewBox="0 0 22.8 28.8">
  <g id="shopping-bag_3_" data-name="shopping-bag (3)" transform="translate(-48.4 0.4)">
    <path id="Path_3" data-name="Path 3" d="M70.794,24.2,69.221,6.15a.763.763,0,0,0-.753-.7H65.23a5.43,5.43,0,1,0-10.859,0H51.133a.759.759,0,0,0-.753.7L48.806,24.2c0,.023-.006.046-.006.069A3.945,3.945,0,0,0,52.926,28H66.674A3.945,3.945,0,0,0,70.8,24.272.284.284,0,0,0,70.794,24.2ZM59.8,1.546a3.951,3.951,0,0,1,3.912,3.9H55.888A3.951,3.951,0,0,1,59.8,1.546Zm6.874,24.908H52.926a2.435,2.435,0,0,1-2.608-2.147L51.824,7h2.541V9.345a.759.759,0,1,0,1.518,0V7h7.83V9.345a.759.759,0,1,0,1.518,0V7H67.77l1.512,17.31A2.438,2.438,0,0,1,66.674,26.454Z" fill="#202020" stroke="#202020" stroke-width="0.8"/>
  </g>
</svg>
