<?xml version="1.0" encoding="UTF-8"?>
<svg xmlns="http://www.w3.org/2000/svg" xmlns:xlink="http://www.w3.org/1999/xlink" width="25px" height="25px" viewBox="0 0 25 25" version="1.1">
<g id="surface1">
<path style=" stroke:none;fill-rule:nonzero;fill:rgb(0%,0%,0%);fill-opacity:1;" d="M 6.25 1.734375 C -1.996094 6.765625 -1.996094 18.402344 6.25 23.4375 C 14.328125 28.296875 25.171875 22.140625 25.171875 12.585938 C 25.171875 3.039062 14.328125 -3.125 6.25 1.734375 Z M 18.234375 3.125 C 22.828125 5.902344 24.914062 12.933594 22.484375 17.453125 C 21.609375 19.097656 21.441406 19.015625 19.015625 16.40625 C 16.753906 13.976562 16.492188 13.28125 17.273438 11.546875 C 18.484375 8.941406 17.1875 5.554688 14.757812 4.773438 C 9.984375 3.296875 5.902344 7.296875 7.898438 11.546875 C 8.679688 13.28125 8.421875 13.976562 6.164062 16.40625 C 3.734375 19.015625 3.558594 19.097656 2.691406 17.453125 C 1.296875 14.929688 1.5625 9.722656 3.125 7.03125 C 6.078125 1.996094 13.195312 0.171875 18.234375 3.125 Z M 16.320312 9.027344 C 16.753906 11.023438 14.929688 13.015625 12.671875 13.015625 C 8.679688 13.015625 7.296875 8.859375 10.589844 6.597656 C 12.234375 5.46875 12.765625 5.382812 14.328125 6.421875 C 15.277344 7.03125 16.140625 8.246094 16.320312 9.027344 Z M 17.621094 17.453125 L 20.3125 20.226562 L 18.316406 21.789062 C 15.625 23.953125 9.546875 23.953125 6.859375 21.789062 L 4.859375 20.226562 L 7.546875 17.453125 C 9.289062 15.796875 11.203125 14.757812 12.585938 14.757812 C 13.976562 14.757812 15.890625 15.796875 17.621094 17.453125 Z M 17.621094 17.453125 "/>
</g>
</svg>
